<svg xmlns="http://www.w3.org/2000/svg" viewBox="0 0 512 512">
 <defs><clipPath id="landscape"><rect x="100" y="84" width="312" height="344" rx="112"/></clipPath></defs>
 <rect width="512" height="512" fill="#fff4af"/>
 <g clip-path="url(#landscape)">
  <rect x="100" y="84" width="312" height="344" fill="#195bff"/>
  <circle cx="318" cy="171" r="43" fill="#ff6745"/>
  <path d="M80 289C151 219 198 235 253 277C313 321 353 264 433 237V448H80Z" fill="#e4d6ff"/>
  <path d="M80 355C148 307 197 296 249 317C318 345 367 330 433 295V448H80Z" fill="#211238"/>
  <path d="M184 428C178 369 289 363 276 320C267 292 231 290 245 264C249 256 257 250 269 245C252 258 256 270 271 283C292 301 315 315 309 340C300 375 239 391 260 428Z" fill="#fffbea"/>
 </g>
</svg>
